<?xml version="1.0" encoding="utf-8"?>
<svg version="1.0" width="1280.000000pt" height="1088.000000pt" viewBox="0 0 1280.000000 1088.000000" preserveAspectRatio="xMidYMid meet" xmlns="http://www.w3.org/2000/svg">
  <g transform="translate(0.000000,1088.000000) scale(0.100000,-0.100000)" fill="#000000" stroke="none">
    <path d="M 6333.959 9560.532 C 6268.959 9555.532 6087.959 9526.532 6065.959 9518.532 C 6049.959 9512.532 6060.959 9504.532 6123.959 9473.532 C 6166.959 9453.532 6229.959 9417.532 6262.959 9393.532 C 6344.959 9335.532 6455.959 9215.532 6498.959 9139.532 C 6517.959 9105.532 6538.959 9077.532 6544.959 9077.532 C 6572.959 9077.532 6683.959 9158.532 6769.959 9243.532 C 6879.959 9351.532 6956.959 9393.532 7097.959 9423.532 L 7181.959 9441.532 L 7147.959 9455.532 C 7047.959 9497.532 6860.959 9540.532 6706.959 9556.532 C 6616.959 9566.532 6425.959 9568.532 6333.959 9560.532 Z" style="fill: rgb(8, 20, 28);"/>
    <path d="M 5208.959 9516.532 C 5120.959 9506.532 4993.959 9483.532 4890.959 9460.532 C 4810.959 9442.532 4814.959 9429.532 4899.959 9428.532 C 4973.959 9427.532 5056.959 9378.532 5135.959 9291.532 C 5171.959 9250.532 5204.959 9217.532 5207.959 9217.532 C 5210.959 9218.532 5245.959 9256.532 5283.959 9304.532 C 5361.959 9400.532 5403.959 9432.532 5521.959 9487.532 L 5603.959 9526.532 L 5443.959 9525.532 C 5355.959 9525.532 5249.959 9521.532 5208.959 9516.532 Z" style="fill: rgb(8, 20, 28);"/>
    <path d="M 5663.959 9433.532 C 5589.959 9415.532 5506.959 9379.532 5451.959 9338.532 C 5401.959 9302.532 5268.959 9139.532 5268.959 9115.532 C 5268.959 9089.532 5279.959 9093.532 5324.959 9130.532 C 5418.959 9210.532 5553.959 9282.532 5718.959 9341.532 C 5789.959 9367.532 5793.959 9367.532 5805.959 9350.532 C 5813.959 9340.532 5817.959 9326.532 5816.959 9318.532 C 5814.959 9310.532 5755.959 9278.532 5683.959 9247.532 C 5450.959 9147.532 5391.959 9107.532 5290.959 8979.532 C 5252.959 8930.532 5214.959 8834.532 5172.959 8676.532 C 5167.959 8659.532 5222.959 8617.532 5246.959 8617.532 C 5252.959 8617.532 5312.959 8654.532 5379.959 8698.532 L 5500.959 8779.532 L 5526.959 8753.532 C 5547.959 8732.532 5551.959 8723.532 5542.959 8709.532 C 5523.959 8678.532 5401.959 8593.532 5288.959 8532.532 C 5227.959 8499.532 5166.959 8464.532 5154.959 8455.532 C 5141.959 8445.532 5086.959 8373.532 5032.959 8295.532 C 4954.959 8181.532 4904.959 8123.532 4790.959 8010.532 C 4647.959 7868.532 4647.959 7868.532 4615.959 7780.532 L 4583.959 7692.532 L 4584.959 7282.532 C 4585.959 7057.532 4589.959 6841.532 4593.959 6802.532 C 4598.959 6754.532 4595.959 6698.532 4584.959 6624.532 C 4575.959 6565.532 4568.959 6478.532 4568.959 6432.532 C 4568.959 6345.532 4575.959 6318.532 4643.959 6157.532 C 4670.959 6094.532 4670.959 6090.532 4658.959 6017.532 C 4652.959 5976.532 4634.959 5886.532 4619.959 5817.532 C 4594.959 5704.532 4590.959 5692.532 4569.959 5689.532 C 4556.959 5687.532 4535.959 5688.532 4522.959 5691.532 C 4495.959 5698.532 4494.959 5688.532 4539.959 5899.532 C 4555.959 5974.532 4568.959 6047.532 4568.959 6062.532 C 4568.959 6076.532 4549.959 6132.532 4527.959 6185.532 C 4472.959 6313.532 4462.959 6388.532 4478.959 6531.532 C 4485.959 6592.532 4492.959 6685.532 4495.959 6738.532 C 4500.959 6826.532 4498.959 6837.532 4475.959 6883.532 C 4461.959 6910.532 4429.959 6955.532 4403.959 6984.532 C 4343.959 7052.532 4191.959 7166.532 4084.959 7223.532 C 3972.959 7282.532 3888.959 7298.532 3683.959 7299.532 C 3502.959 7300.532 3416.959 7283.532 3305.959 7225.532 C 3204.959 7172.532 3085.959 7046.532 2998.959 6897.532 C 2958.959 6828.532 2901.959 6729.532 2870.959 6677.532 C 2707.959 6397.532 2607.959 6315.532 2369.959 6267.532 C 2191.959 6231.532 1741.959 6230.532 1705.959 6266.532 C 1700.959 6271.532 1698.959 6290.532 1702.959 6309.532 L 1708.959 6342.532 L 1990.959 6342.532 C 2312.959 6343.532 2384.959 6353.532 2504.959 6412.532 C 2599.959 6459.532 2647.959 6512.532 2688.959 6618.532 C 2729.959 6724.532 2737.959 6815.532 2714.959 6920.532 C 2688.959 7034.532 2647.959 7093.532 2479.959 7257.532 C 2314.959 7418.532 2264.959 7487.532 2225.959 7604.532 C 2194.959 7698.532 2173.959 7816.532 2186.959 7829.532 C 2191.959 7834.532 2211.959 7840.532 2231.959 7844.532 C 2272.959 7850.532 2267.959 7860.532 2293.959 7722.532 C 2302.959 7675.532 2325.959 7608.532 2349.959 7560.532 C 2385.959 7486.532 2401.959 7466.532 2524.959 7350.532 C 2730.959 7155.532 2784.959 7071.532 2816.959 6896.532 L 2834.959 6802.532 L 2872.959 6872.532 C 2984.959 7075.532 3093.959 7206.532 3212.959 7282.532 C 3272.959 7320.532 3413.959 7377.532 3449.959 7377.532 C 3480.959 7377.532 3482.959 7401.532 3454.959 7456.532 C 3429.959 7503.532 3428.959 7515.532 3428.959 7659.532 C 3428.959 7743.532 3433.959 7883.532 3440.959 7970.532 L 3452.959 8127.532 L 3486.959 8127.532 L 3521.959 8127.532 L 3514.959 8015.532 C 3511.959 7953.532 3505.959 7819.532 3502.959 7717.532 L 3496.959 7532.532 L 3531.959 7467.532 L 3566.959 7402.532 L 3658.959 7401.532 C 3863.959 7398.532 4008.959 7373.532 4105.959 7323.532 C 4184.959 7284.532 4327.959 7184.532 4403.959 7116.532 L 4473.959 7053.532 L 4479.959 7368.532 L 4484.959 7682.532 L 4522.959 7795.532 C 4543.959 7858.532 4558.959 7910.532 4556.959 7911.532 C 4511.959 7943.532 4458.959 7974.532 4297.959 8058.532 C 4075.959 8174.532 3999.959 8221.532 3788.959 8378.532 C 3670.959 8465.532 3638.959 8494.532 3640.959 8510.532 C 3642.959 8521.532 3650.959 8535.532 3659.959 8540.532 C 3673.959 8548.532 3700.959 8533.532 3797.959 8461.532 C 4009.959 8305.532 4110.959 8239.532 4233.959 8176.532 C 4299.959 8142.532 4410.959 8083.532 4481.959 8045.532 L 4608.959 7975.532 L 4642.959 8001.532 C 4734.959 8070.532 4850.959 8201.532 4956.959 8354.532 C 5018.959 8443.532 5082.959 8526.532 5098.959 8537.532 C 5115.959 8549.532 5128.959 8562.532 5128.959 8567.532 C 5128.959 8584.532 4903.959 8688.532 4833.959 8703.532 C 4778.959 8715.532 4644.959 8720.532 4198.959 8727.532 C 3887.959 8732.532 3606.959 8741.532 3573.959 8747.532 C 3393.959 8777.532 3196.959 8738.532 2983.959 8630.532 C 2908.959 8591.532 2876.959 8567.532 2791.959 8481.532 C 2735.959 8425.532 2682.959 8367.532 2672.959 8352.532 C 2652.959 8321.532 2654.959 8318.532 2736.959 8287.532 C 2787.959 8268.532 2791.959 8268.532 2825.959 8283.532 C 2845.959 8293.532 2866.959 8314.532 2876.959 8334.532 C 2889.959 8362.532 2897.959 8367.532 2925.959 8367.532 C 2952.959 8367.532 2958.959 8363.532 2958.959 8347.532 C 2958.959 8280.532 2863.959 8197.532 2787.959 8197.532 C 2770.959 8197.532 2708.959 8218.532 2649.959 8245.532 L 2543.959 8292.532 L 2393.959 8292.532 C 2243.959 8292.532 2242.959 8292.532 2175.959 8259.532 C 2040.959 8192.532 1859.959 8038.532 1697.959 7850.532 C 1584.959 7719.532 1528.959 7634.532 1439.959 7459.532 C 1348.959 7278.532 1307.959 7171.532 1263.959 7002.532 C 1224.959 6854.532 1178.959 6744.532 1131.959 6688.532 L 1103.959 6655.532 L 1078.959 6676.532 L 1053.959 6696.532 L 1076.959 6734.532 C 1127.959 6820.532 1160.959 6901.532 1188.959 7012.532 C 1205.959 7076.532 1218.959 7138.532 1218.959 7149.532 C 1218.959 7171.532 1216.959 7171.532 981.959 7131.532 C 815.959 7103.532 721.959 7075.532 659.959 7032.532 C 537.959 6950.532 296.959 6586.532 243.959 6402.532 C 207.959 6279.532 237.959 6129.532 318.959 6027.532 C 377.959 5953.532 588.959 5808.532 638.959 5807.532 C 654.959 5807.532 742.959 5893.532 772.959 5937.532 C 792.959 5967.532 792.959 6010.532 774.959 6107.532 C 766.959 6148.532 762.959 6185.532 766.959 6189.532 C 770.959 6192.532 789.959 6198.532 809.959 6202.532 L 846.959 6209.532 L 867.959 6110.532 C 879.959 6056.532 891.959 6003.532 893.959 5991.532 C 896.959 5980.532 886.959 5947.532 872.959 5920.532 C 847.959 5869.532 796.959 5812.532 636.959 5658.532 C 513.959 5540.532 488.959 5476.532 488.959 5279.532 C 489.959 5085.532 522.959 4968.532 619.959 4825.532 C 734.959 4654.532 899.959 4487.532 1001.959 4438.532 C 1057.959 4410.532 1281.959 4357.532 1293.959 4368.532 C 1295.959 4371.532 1284.959 4399.532 1267.959 4432.532 C 1228.959 4512.532 1215.959 4588.532 1228.959 4657.532 C 1234.959 4687.532 1264.959 4786.532 1296.959 4877.532 L 1353.959 5042.532 L 1353.959 5202.532 C 1353.959 5408.532 1326.959 5528.532 1236.959 5730.532 C 1214.959 5778.532 1198.959 5825.532 1200.959 5834.532 C 1202.959 5843.532 1218.959 5857.532 1236.959 5864.532 C 1267.959 5877.532 1269.959 5876.532 1288.959 5845.532 C 1342.959 5756.532 1418.959 5525.532 1443.959 5372.532 C 1474.959 5182.532 1458.959 5051.532 1378.959 4827.532 C 1294.959 4596.532 1303.959 4513.532 1424.959 4378.532 C 1512.959 4280.532 1604.959 4232.532 1899.959 4128.532 C 2162.959 4035.532 2346.959 3990.532 2382.959 4009.532 C 2394.959 4015.532 2464.959 4066.532 2538.959 4122.532 C 2682.959 4230.532 2892.959 4380.532 3023.959 4467.532 C 3067.959 4496.532 3116.959 4531.532 3131.959 4543.532 L 3159.959 4566.532 L 3063.959 4611.532 C 2922.959 4677.532 2712.959 4853.532 2574.959 5021.532 C 2449.959 5172.532 2363.959 5244.532 2133.959 5387.532 C 1897.959 5533.532 1809.959 5596.532 1725.959 5678.532 C 1643.959 5759.532 1639.959 5772.532 1685.959 5802.532 C 1709.959 5818.532 1710.959 5818.532 1786.959 5745.532 C 1879.959 5657.532 1946.959 5608.532 2143.959 5487.532 C 2226.959 5437.532 2329.959 5370.532 2372.959 5339.532 C 2464.959 5273.532 2602.959 5139.532 2672.959 5046.532 C 2699.959 5011.532 2781.959 4930.532 2854.959 4867.532 C 2990.959 4750.532 3079.959 4695.532 3205.959 4650.532 L 3266.959 4629.532 L 3394.959 4708.532 C 3565.959 4815.532 3661.959 4860.532 3793.959 4897.532 C 3854.959 4914.532 3908.959 4930.532 3915.959 4932.532 C 3923.959 4935.532 3921.959 4950.532 3908.959 4985.532 C 3876.959 5068.532 3850.959 5183.532 3809.959 5423.532 C 3764.959 5678.532 3753.959 5774.532 3738.959 6022.532 C 3716.959 6376.532 3702.959 6433.532 3572.959 6711.532 C 3526.959 6809.532 3488.959 6900.532 3488.959 6912.532 C 3488.959 6929.532 3497.959 6938.532 3520.959 6946.532 C 3558.959 6960.532 3548.959 6974.532 3646.959 6767.532 C 3797.959 6448.532 3801.959 6432.532 3839.959 5882.532 C 3853.959 5671.532 3917.959 5282.532 3970.959 5083.532 C 3987.959 5019.532 3989.959 4998.532 3980.959 4974.532 L 3969.959 4944.532 L 4021.959 4951.532 C 4268.959 4982.532 4375.959 4981.532 4588.959 4944.532 C 4801.959 4907.532 5145.959 4923.532 5301.959 4976.532 C 5382.959 5004.532 5411.959 5022.532 5490.959 5091.532 C 5530.959 5125.532 5582.959 5165.532 5604.959 5180.532 C 5639.959 5202.532 5646.959 5212.532 5651.959 5249.532 C 5654.959 5273.532 5666.959 5325.532 5677.959 5366.532 C 5705.959 5465.532 5704.959 5550.532 5677.959 5602.532 C 5649.959 5654.532 5588.959 5726.532 5451.959 5869.532 C 5389.959 5933.532 5338.959 5989.532 5338.959 5995.532 C 5338.959 6000.532 5347.959 6012.532 5358.959 6022.532 C 5378.959 6040.532 5380.959 6040.532 5438.959 5982.532 C 5471.959 5950.532 5500.959 5926.532 5504.959 5929.532 C 5507.959 5933.532 5489.959 5984.532 5464.959 6042.532 C 5439.959 6101.532 5418.959 6156.532 5418.959 6163.532 C 5418.959 6171.532 5427.959 6177.532 5439.959 6177.532 C 5455.959 6177.532 5468.959 6159.532 5498.959 6095.532 C 5519.959 6049.532 5549.959 5973.532 5564.959 5925.532 C 5587.959 5854.532 5604.959 5823.532 5655.959 5760.532 C 5690.959 5717.532 5730.959 5657.532 5745.959 5627.532 C 5769.959 5579.532 5773.959 5561.532 5771.959 5492.532 C 5770.959 5442.532 5760.959 5379.532 5744.959 5323.532 L 5719.959 5235.532 L 5776.959 5243.532 C 5807.959 5248.532 5930.959 5252.532 6048.959 5252.532 L 6263.959 5252.532 L 6340.959 5289.532 C 6556.959 5392.532 6749.959 5564.532 6827.959 5721.532 C 6862.959 5793.532 6884.959 5885.532 6893.959 6007.532 C 6898.959 6069.532 6908.959 6109.532 6928.959 6155.532 C 6944.959 6189.532 6959.959 6217.532 6962.959 6217.532 C 6965.959 6217.532 6983.959 6209.532 7003.959 6200.532 C 7028.959 6188.532 7037.959 6178.532 7033.959 6168.532 C 7006.959 6097.532 6987.959 6017.532 6980.959 5932.532 C 6960.959 5718.532 6868.959 5554.532 6682.959 5400.532 C 6643.959 5368.532 6594.959 5327.532 6572.959 5309.532 L 6533.959 5276.532 L 6568.959 5282.532 C 6587.959 5286.532 6673.959 5304.532 6758.959 5323.532 C 7114.959 5403.532 7198.959 5417.532 7358.959 5424.532 C 7533.959 5430.532 7676.959 5414.532 7823.959 5372.532 C 7870.959 5358.532 7916.959 5347.532 7925.959 5347.532 C 7950.959 5347.532 8120.959 5488.532 8267.959 5631.532 C 8410.959 5771.532 8521.959 5896.532 8658.959 6072.532 C 8745.959 6185.532 8931.959 6379.532 8982.959 6412.532 C 9010.959 6431.532 9010.959 6431.532 9029.959 6406.532 L 9047.959 6382.532 L 8939.959 6276.532 C 8880.959 6218.532 8769.959 6093.532 8693.959 5997.532 C 8466.959 5714.532 8294.959 5535.532 8081.959 5363.532 C 8041.959 5331.532 8008.959 5302.532 8008.959 5298.532 C 8008.959 5292.532 8152.959 5203.532 8298.959 5120.532 C 8339.959 5096.532 8383.959 5077.532 8395.959 5077.532 C 8411.959 5077.532 8432.959 5096.532 8470.959 5147.532 C 8499.959 5186.532 8530.959 5217.532 8539.959 5217.532 C 8548.959 5217.532 8566.959 5208.532 8579.959 5198.532 L 8603.959 5179.532 L 8583.959 5141.532 C 8554.959 5086.532 8448.959 4979.532 8414.959 4971.532 C 8378.959 4962.532 8348.959 4977.532 8089.959 5130.532 C 7871.959 5258.532 7809.959 5284.532 7647.959 5312.532 C 7527.959 5333.532 7314.959 5333.532 7183.959 5312.532 C 7128.959 5303.532 6984.959 5274.532 6863.959 5248.532 C 6538.959 5176.532 6368.959 5147.532 6259.959 5147.532 C 6203.959 5147.532 5997.959 5094.532 5904.959 5055.532 C 5762.959 4997.532 5622.959 4899.532 5462.959 4745.532 L 5380.959 4666.532 L 5410.959 4594.532 C 5455.959 4488.532 5458.959 4388.532 5420.959 4242.532 C 5392.959 4133.532 5392.959 4132.532 5360.959 4129.532 C 5331.959 4126.532 5328.959 4128.532 5328.959 4152.532 C 5328.959 4167.532 5338.959 4215.532 5349.959 4260.532 C 5376.959 4361.532 5378.959 4465.532 5355.959 4532.532 C 5345.959 4560.532 5318.959 4618.532 5293.959 4662.532 C 5268.959 4705.532 5248.959 4746.532 5248.959 4753.532 C 5248.959 4760.532 5257.959 4771.532 5269.959 4778.532 C 5287.959 4787.532 5294.959 4785.532 5317.959 4764.532 L 5343.959 4738.532 L 5442.959 4828.532 C 5591.959 4963.532 5691.959 5035.532 5816.959 5095.532 C 5877.959 5124.532 5928.959 5151.532 5928.959 5154.532 C 5928.959 5164.532 5792.959 5149.532 5735.959 5132.532 C 5679.959 5116.532 5628.959 5082.532 5503.959 4977.532 C 5388.959 4880.532 5225.959 4839.532 4913.959 4830.532 C 4746.959 4825.532 4707.959 4827.532 4593.959 4847.532 C 4338.959 4890.532 4129.959 4883.532 3879.959 4822.532 C 3700.959 4778.532 3626.959 4742.532 3326.959 4551.532 C 2950.959 4312.532 2544.959 4020.532 2406.959 3889.532 C 2327.959 3814.532 2321.959 3792.532 2272.959 3429.532 C 2258.959 3326.532 2244.959 3225.532 2241.959 3204.532 C 2233.959 3147.532 2277.959 3068.532 2370.959 2971.532 L 2449.959 2889.532 L 2462.959 2801.532 C 2469.959 2752.532 2482.959 2696.532 2491.959 2675.532 C 2502.959 2648.532 2505.959 2618.532 2501.959 2558.532 C 2496.959 2496.532 2499.959 2467.532 2512.959 2432.532 C 2546.959 2343.532 2655.959 2227.532 2787.959 2138.532 C 2899.959 2063.532 3037.959 1987.532 3060.959 1989.532 C 3073.959 1990.532 3133.959 1967.532 3193.959 1939.532 C 3254.959 1911.532 3331.959 1878.532 3363.959 1867.532 C 3448.959 1838.532 3579.959 1825.532 3674.959 1837.532 C 3780.959 1850.532 3868.959 1868.532 3868.959 1876.532 C 3868.959 1879.532 3842.959 1898.532 3811.959 1917.532 C 3739.959 1959.532 3648.959 2045.532 3608.959 2107.532 C 3554.959 2191.532 3538.959 2256.532 3538.959 2392.532 C 3538.959 2549.532 3561.959 2643.532 3657.959 2871.532 C 3696.959 2964.532 3726.959 3042.532 3725.959 3044.532 C 3723.959 3046.532 3700.959 3033.532 3673.959 3015.532 C 3605.959 2970.532 3554.959 2896.532 3456.959 2696.532 C 3351.959 2486.532 3323.959 2445.532 3259.959 2413.532 L 3210.959 2388.532 L 3197.959 2418.532 C 3187.959 2444.532 3187.959 2450.532 3199.959 2458.532 C 3207.959 2463.532 3227.959 2476.532 3245.959 2488.532 C 3270.959 2504.532 3300.959 2553.532 3387.959 2726.532 C 3532.959 3010.532 3591.959 3077.532 3751.959 3138.532 L 3809.959 3160.532 L 3724.959 3204.532 C 3677.959 3229.532 3619.959 3266.532 3594.959 3288.532 C 3570.959 3309.532 3508.959 3349.532 3456.959 3376.532 C 3405.959 3403.532 3273.959 3474.532 3163.959 3535.532 C 2985.959 3633.532 2963.959 3648.532 2966.959 3668.532 C 2967.959 3681.532 2973.959 3696.532 2978.959 3701.532 C 2983.959 3706.532 3072.959 3665.532 3193.959 3603.532 C 3307.959 3544.532 3401.959 3497.532 3403.959 3499.532 C 3405.959 3501.532 3390.959 3536.532 3371.959 3577.532 C 3336.959 3652.532 3308.959 3723.532 3308.959 3737.532 C 3308.959 3742.532 3322.959 3750.532 3338.959 3756.532 C 3364.959 3765.532 3370.959 3764.532 3375.959 3749.532 C 3395.959 3694.532 3471.959 3542.532 3499.959 3500.532 C 3636.959 3300.532 3820.959 3206.532 4103.959 3191.532 C 4223.959 3184.532 4239.959 3187.532 4553.959 3268.532 C 4745.959 3318.532 4767.959 3328.532 4814.959 3389.532 C 4853.959 3440.532 4900.959 3477.532 4928.959 3477.532 C 4971.959 3478.532 4968.959 3492.532 4892.959 3658.532 C 4850.959 3748.532 4810.959 3839.532 4802.959 3859.532 C 4790.959 3894.532 4790.959 3898.532 4809.959 3908.532 C 4820.959 3913.532 4836.959 3917.532 4844.959 3915.532 C 4852.959 3913.532 4887.959 3850.532 4922.959 3772.532 C 5055.959 3475.532 5048.959 3482.532 5230.959 3457.532 C 5496.959 3419.532 5653.959 3405.532 5713.959 3412.532 C 5798.959 3421.532 5890.959 3460.532 6168.959 3605.532 L 6413.959 3732.532 L 6419.959 3792.532 C 6428.959 3886.532 6518.959 4058.532 6674.959 4278.532 C 6722.959 4346.532 6799.959 4458.532 6844.959 4527.532 C 6959.959 4700.532 6963.959 4704.532 6985.959 4691.532 C 7028.959 4665.532 7010.959 4629.532 6787.959 4312.532 C 6717.959 4213.532 6641.959 4101.532 6618.959 4062.532 C 6557.959 3962.532 6488.959 3818.532 6488.959 3789.532 C 6488.959 3768.532 6491.959 3765.532 6516.959 3771.532 C 6599.959 3790.532 6655.959 3788.532 6758.959 3762.532 C 6896.959 3727.532 7052.959 3721.532 7384.959 3736.532 C 7661.959 3750.532 7680.959 3753.532 7808.959 3815.532 C 7906.959 3862.532 7990.959 3946.532 8042.959 4047.532 C 8089.959 4139.532 8082.959 4131.532 8113.959 4123.532 C 8147.959 4114.532 8145.959 4091.532 8102.959 4005.532 C 8064.959 3930.532 7985.959 3838.532 7917.959 3792.532 C 7896.959 3777.532 7878.959 3761.532 7878.959 3758.532 C 7878.959 3754.532 7902.959 3743.532 7931.959 3733.532 C 7959.959 3723.532 8037.959 3684.532 8103.959 3646.532 C 8297.959 3536.532 8309.959 3532.532 8538.959 3532.532 C 8709.959 3532.532 8738.959 3534.532 8771.959 3551.532 C 8792.959 3561.532 8854.959 3619.532 8911.959 3681.532 C 9136.959 3927.532 9179.959 3964.532 9358.959 4066.532 C 9707.959 4264.532 9928.959 4433.532 10114.959 4645.532 C 10224.959 4771.532 10253.959 4821.532 10333.959 5021.532 C 10420.959 5240.532 10451.959 5302.532 10578.959 5513.532 C 10705.959 5724.532 10732.959 5792.532 10726.959 5884.532 C 10723.959 5951.532 10721.959 5954.532 10580.959 6191.532 C 10430.959 6443.532 10350.959 6592.532 10359.959 6601.532 C 10362.959 6604.532 10380.959 6613.532 10400.959 6621.532 L 10436.959 6637.532 L 10516.959 6494.532 C 10560.959 6416.532 10643.959 6271.532 10702.959 6173.532 C 10760.959 6074.532 10813.959 5977.532 10818.959 5958.532 C 10852.959 5836.532 10807.959 5701.532 10646.959 5440.532 C 10591.959 5351.532 10577.959 5321.532 10585.959 5308.532 C 10596.959 5290.532 10694.959 5230.532 10847.959 5148.532 C 10929.959 5105.532 11055.959 5012.532 11127.959 4942.532 C 11145.959 4924.532 11133.959 4877.532 11110.959 4877.532 C 11100.959 4877.532 11052.959 4911.532 11003.959 4952.532 C 10953.959 4993.532 10878.959 5046.532 10835.959 5069.532 C 10792.959 5093.532 10707.959 5140.532 10646.959 5175.532 C 10583.959 5209.532 10530.959 5233.532 10525.959 5228.532 C 10521.959 5224.532 10479.959 5126.532 10432.959 5011.532 C 10386.959 4897.532 10336.959 4783.532 10322.959 4759.532 C 10281.959 4690.532 10161.959 4552.532 10022.959 4416.532 C 9918.959 4314.532 9861.959 4268.532 9725.959 4178.532 C 9632.959 4116.532 9500.959 4034.532 9430.959 3995.532 C 9281.959 3912.532 9258.959 3897.532 9199.959 3843.532 C 9114.959 3767.532 8908.959 3535.532 8915.959 3523.532 C 8919.959 3517.532 8952.959 3466.532 8989.959 3409.532 C 9054.959 3309.532 9088.959 3223.532 9070.959 3205.532 C 9065.959 3200.532 9046.959 3194.532 9027.959 3191.532 C 8993.959 3185.532 8991.959 3186.532 8978.959 3229.532 C 8970.959 3252.532 8937.959 3312.532 8905.959 3361.532 L 8847.959 3450.532 L 8770.959 3443.532 C 8481.959 3420.532 8353.959 3426.532 8234.959 3471.532 C 8201.959 3484.532 8121.959 3525.532 8058.959 3561.532 C 7933.959 3633.532 7869.959 3657.532 7800.959 3657.532 L 7755.959 3657.532 L 7761.959 3607.532 C 7769.959 3541.532 7827.959 3420.532 7872.959 3378.532 C 7910.959 3341.532 7917.959 3317.532 7893.959 3297.532 C 7842.959 3255.532 7732.959 3408.532 7691.959 3577.532 L 7674.959 3649.532 L 7433.959 3641.532 C 7301.959 3636.532 7119.959 3633.532 7028.959 3634.532 C 6884.959 3636.532 6848.959 3640.532 6745.959 3665.532 C 6574.959 3707.532 6577.959 3708.532 6143.959 3486.532 C 5822.959 3322.532 5790.959 3312.532 5604.959 3320.532 C 5526.959 3323.532 5382.959 3337.532 5283.959 3351.532 C 5184.959 3365.532 5068.959 3379.532 5025.959 3383.532 L 4947.959 3390.532 L 4863.959 3301.532 C 4816.959 3252.532 4775.959 3202.532 4772.959 3190.532 C 4765.959 3163.532 4804.959 3074.532 4890.959 2927.532 L 4952.959 2822.532 L 4956.959 2714.532 L 4961.959 2605.532 L 4993.959 2591.532 C 5010.959 2584.532 5064.959 2568.532 5111.959 2555.532 C 5193.959 2534.532 5198.959 2531.532 5198.959 2505.532 C 5198.959 2440.532 5184.959 2436.532 5068.959 2467.532 C 4964.959 2495.532 4882.959 2535.532 4869.959 2564.532 C 4863.959 2577.532 4858.959 2634.532 4858.959 2690.532 L 4858.959 2791.532 L 4788.959 2915.532 C 4710.959 3050.532 4684.959 3110.532 4673.959 3175.532 C 4669.959 3198.532 4665.959 3217.532 4663.959 3217.532 C 4661.959 3217.532 4568.959 3194.532 4456.959 3167.532 C 4255.959 3116.532 4252.959 3116.532 4103.959 3117.532 C 3950.959 3119.532 3861.959 3105.532 3832.959 3075.532 C 3817.959 3059.532 3723.959 2844.532 3675.959 2716.532 C 3622.959 2573.532 3605.959 2483.532 3610.959 2364.532 C 3613.959 2274.532 3617.959 2254.532 3646.959 2193.532 C 3718.959 2040.532 3848.959 1955.532 4178.959 1846.532 C 4371.959 1783.532 4416.959 1762.532 4509.959 1691.532 C 4565.959 1648.532 4628.959 1583.532 4628.959 1568.532 C 4628.959 1564.532 4619.959 1552.532 4608.959 1542.532 C 4588.959 1524.532 4587.959 1524.532 4550.959 1559.532 C 4492.959 1614.532 4408.959 1676.532 4359.959 1702.532 C 4334.959 1714.532 4239.959 1748.532 4149.959 1777.532 L 3985.959 1829.532 L 3914.959 1808.532 C 3703.959 1747.532 3513.959 1742.532 3348.959 1796.532 C 3296.959 1812.532 3252.959 1824.532 3250.959 1822.532 C 3245.959 1817.532 3364.959 1741.532 3478.959 1677.532 C 3728.959 1535.532 4047.959 1431.532 4333.959 1398.532 C 4383.959 1392.532 4590.959 1387.532 4793.959 1386.532 C 5145.959 1385.532 5171.959 1386.532 5333.959 1411.532 C 5606.959 1453.532 5805.959 1494.532 5918.959 1532.532 C 6162.959 1615.532 6363.959 1634.532 6788.959 1616.532 C 6992.959 1608.532 7160.959 1607.532 7333.959 1613.532 C 7471.959 1618.532 7705.959 1622.532 7853.959 1621.532 C 8150.959 1620.532 8124.959 1624.532 8543.959 1530.532 L 8713.959 1492.532 L 9043.959 1495.532 C 9325.959 1497.532 9394.959 1494.532 9518.959 1477.532 C 9722.959 1450.532 9916.959 1430.532 10108.959 1417.532 C 10294.959 1405.532 10393.959 1394.532 10553.959 1370.532 C 10671.959 1353.532 10908.959 1348.532 11022.959 1361.532 C 11152.959 1376.532 11181.959 1445.532 11114.959 1582.532 C 11076.959 1660.532 11059.959 1678.532 10902.959 1800.532 C 10778.959 1896.532 10679.959 1997.532 10546.959 2164.532 C 10496.959 2226.532 10454.959 2277.532 10452.959 2277.532 C 10451.959 2277.532 10399.959 2261.532 10336.959 2241.532 C 10160.959 2186.532 10021.959 2165.532 9826.959 2165.532 L 9658.959 2165.532 L 9698.959 2120.532 C 9719.959 2095.532 9749.959 2052.532 9763.959 2024.532 C 9786.959 1977.532 9788.959 1963.532 9788.959 1840.532 L 9788.959 1707.532 L 9753.959 1707.532 L 9718.959 1707.532 L 9718.959 1825.532 C 9718.959 1927.532 9715.959 1948.532 9694.959 1992.532 C 9663.959 2059.532 9579.959 2140.532 9502.959 2178.532 C 9430.959 2214.532 9384.959 2222.532 8950.959 2271.532 C 8223.959 2355.532 8193.959 2356.532 7880.959 2331.532 C 7756.959 2321.532 7622.959 2317.532 7518.959 2320.532 C 7340.959 2325.532 7317.959 2330.532 7174.959 2398.532 C 7136.959 2416.532 7092.959 2430.532 7077.959 2430.532 C 7042.959 2430.532 6969.959 2393.532 6808.959 2291.532 C 6663.959 2200.532 6566.959 2154.532 6483.959 2136.532 C 6444.959 2127.532 6352.959 2123.532 6223.959 2123.532 C 6009.959 2123.532 5962.959 2129.532 5726.959 2188.532 C 5662.959 2204.532 5598.959 2217.532 5584.959 2217.532 C 5541.959 2217.532 5468.959 2183.532 5371.959 2120.532 C 5320.959 2086.532 5248.959 2048.532 5211.959 2035.532 C 5150.959 2014.532 5127.959 2012.532 4978.959 2013.532 C 4887.959 2014.532 4795.959 2018.532 4773.959 2023.532 C 4737.959 2032.532 4733.959 2036.532 4733.959 2065.532 C 4733.959 2083.532 4735.959 2098.532 4738.959 2099.532 C 4741.959 2100.532 4804.959 2095.532 4879.959 2087.532 C 5099.959 2066.532 5209.959 2092.532 5363.959 2202.532 C 5493.959 2295.532 5557.959 2304.532 5757.959 2257.532 C 5981.959 2205.532 6062.959 2194.532 6233.959 2194.532 C 6321.959 2194.532 6420.959 2199.532 6453.959 2205.532 C 6526.959 2219.532 6654.959 2282.532 6808.959 2378.532 C 6950.959 2467.532 7033.959 2507.532 7076.959 2507.532 C 7094.959 2507.532 7160.959 2485.532 7221.959 2458.532 C 7284.959 2430.532 7361.959 2403.532 7398.959 2398.532 C 7479.959 2385.532 7619.959 2384.532 7768.959 2397.532 C 8054.959 2421.532 8165.959 2425.532 8282.959 2416.532 C 8509.959 2398.532 9315.959 2306.532 9416.959 2287.532 C 9443.959 2282.532 9490.959 2267.532 9520.959 2254.532 C 9565.959 2234.532 9576.959 2232.532 9584.959 2243.532 C 9591.959 2255.532 9608.959 2255.532 9683.959 2246.532 C 9794.959 2232.532 10004.959 2240.532 10117.959 2262.532 C 10412.959 2320.532 10719.959 2461.532 11083.959 2707.532 L 11173.959 2767.532 L 11191.959 2746.532 C 11201.959 2734.532 11207.959 2719.532 11205.959 2713.532 C 11195.959 2681.532 10852.959 2466.532 10666.959 2374.532 C 10596.959 2340.532 10539.959 2307.532 10538.959 2302.532 C 10538.959 2284.532 10666.959 2129.532 10768.959 2023.532 C 10820.959 1969.532 10922.959 1878.532 10993.959 1822.532 C 11091.959 1744.532 11131.959 1706.532 11155.959 1666.532 C 11229.959 1542.532 11240.959 1448.532 11189.959 1365.532 L 11157.959 1314.532 L 11350.959 1320.532 C 11559.959 1326.532 11655.959 1341.532 11808.959 1393.532 C 11882.959 1419.532 11893.959 1426.532 11896.959 1447.532 C 11897.959 1461.532 11910.959 1521.532 11924.959 1581.532 C 11948.959 1683.532 11949.959 1699.532 11942.959 1861.532 C 11938.959 1977.532 11939.959 2045.532 11947.959 2072.532 C 11953.959 2094.532 11994.959 2161.532 12038.959 2221.532 C 12144.959 2366.532 12153.959 2395.532 12152.959 2602.532 C 12152.959 2739.532 12148.959 2779.532 12124.959 2880.532 C 12093.959 3014.532 12043.959 3167.532 11996.959 3275.532 L 11963.959 3349.532 L 11987.959 3368.532 C 12010.959 3387.532 12009.959 3387.532 11846.959 3387.532 C 11755.959 3387.532 11653.959 3390.532 11618.959 3394.532 L 11556.959 3400.532 L 11563.959 3336.532 C 11576.959 3228.532 11570.959 2972.532 11549.959 2777.532 C 11538.959 2675.532 11527.959 2547.532 11523.959 2492.532 C 11520.959 2437.532 11515.959 2373.532 11512.959 2349.532 C 11507.959 2307.532 11505.959 2306.532 11475.959 2309.532 L 11443.959 2312.532 L 11446.959 2402.532 C 11447.959 2452.532 11460.959 2611.532 11474.959 2757.532 C 11504.959 3057.532 11503.959 3290.532 11473.959 3427.532 C 11428.959 3631.532 11334.959 3843.532 11213.959 4012.532 C 11177.959 4062.532 11150.959 4108.532 11153.959 4116.532 C 11161.959 4135.532 11142.959 4126.532 11045.959 4063.532 C 10914.959 3976.532 10863.959 3914.532 10718.959 3667.532 C 10614.959 3489.532 10563.959 3417.532 10455.959 3292.532 C 10321.959 3135.532 10176.959 3001.532 10051.959 2917.532 C 9991.959 2877.532 9904.959 2806.532 9857.959 2760.532 C 9779.959 2683.532 9768.959 2676.532 9749.959 2686.532 C 9738.959 2693.532 9728.959 2704.532 9728.959 2712.532 C 9728.959 2732.532 9839.959 2857.532 9890.959 2894.532 C 9914.959 2912.532 9966.959 2948.532 10006.959 2975.532 C 10243.959 3134.532 10461.959 3381.532 10660.959 3713.532 C 10820.959 3982.532 10856.959 4025.532 11020.959 4133.532 C 11392.959 4380.532 11567.959 4580.532 11613.959 4809.532 C 11639.959 4942.532 11634.959 4984.532 11573.959 5161.532 C 11513.959 5332.532 11489.959 5429.532 11463.959 5602.532 C 11420.959 5895.532 11349.959 6205.532 11283.959 6397.532 C 11125.959 6852.532 10885.959 7080.532 10466.959 7173.532 C 10333.959 7203.532 10041.959 7187.532 9993.959 7147.532 C 9987.959 7142.532 9964.959 7105.532 9942.959 7066.532 C 9896.959 6981.532 9774.959 6845.532 9752.959 6854.532 C 9744.959 6857.532 9733.959 6868.532 9727.959 6879.532 C 9718.959 6895.532 9725.959 6907.532 9769.959 6955.532 C 9837.959 7030.532 9881.959 7097.532 9914.959 7177.532 C 9951.959 7267.532 9951.959 7329.532 9913.959 7392.532 C 9853.959 7496.532 9626.959 7701.532 9194.959 8042.532 C 9091.959 8124.532 9004.959 8197.532 9001.959 8204.532 C 8998.959 8212.532 9004.959 8227.532 9013.959 8237.532 C 9035.959 8262.532 9030.959 8265.532 9223.959 8114.532 C 9641.959 7786.532 9878.959 7573.532 9964.959 7447.532 C 10006.959 7385.532 10011.959 7372.532 10016.959 7307.532 C 10020.959 7253.532 10024.959 7237.532 10034.959 7241.532 C 10074.959 7256.532 10236.959 7269.532 10328.959 7264.532 C 10562.959 7251.532 10787.959 7167.532 10959.959 7029.532 C 11120.959 6900.532 11223.959 6750.532 11324.959 6499.532 C 11414.959 6277.532 11429.959 6256.532 12039.959 5487.532 C 12111.959 5396.532 12206.959 5268.532 12250.959 5203.532 C 12310.959 5114.532 12339.959 5079.532 12366.959 5065.532 C 12386.959 5055.532 12444.959 5008.532 12495.959 4960.532 C 12580.959 4878.532 12588.959 4867.532 12607.959 4804.532 C 12618.959 4766.532 12633.959 4694.532 12639.959 4644.532 C 12653.959 4533.532 12645.959 4276.532 12623.959 4128.532 L 12608.959 4024.532 L 12678.959 3868.532 C 12717.959 3782.532 12757.959 3701.532 12768.959 3687.532 L 12788.959 3662.532 L 12788.959 3707.532 C 12788.959 3856.532 12753.959 4252.532 12722.959 4437.532 C 12664.959 4785.532 12557.959 5074.532 12429.959 5226.532 C 12381.959 5283.532 12368.959 5309.532 12354.959 5363.532 C 12330.959 5456.532 12266.959 5615.532 12206.959 5727.532 C 12098.959 5930.532 11984.959 6065.532 11865.959 6131.532 C 11828.959 6152.532 11791.959 6179.532 11783.959 6191.532 C 11775.959 6203.532 11764.959 6263.532 11758.959 6325.532 C 11740.959 6521.532 11709.959 6635.532 11631.959 6792.532 C 11506.959 7046.532 11247.959 7311.532 10960.959 7476.532 C 10910.959 7505.532 10867.959 7536.532 10864.959 7546.532 C 10862.959 7555.532 10856.959 7578.532 10853.959 7597.532 C 10837.959 7677.532 10761.959 7790.532 10626.959 7935.532 C 10580.959 7984.532 10509.959 8070.532 10468.959 8127.532 C 10161.959 8548.532 9601.959 8871.532 8860.959 9053.532 C 8740.959 9082.532 8627.959 9118.532 8541.959 9153.532 C 8380.959 9219.532 8210.959 9269.532 8029.959 9303.532 C 7913.959 9325.532 7850.959 9330.532 7598.959 9337.532 C 7436.959 9342.532 7272.959 9349.532 7233.959 9352.532 C 7154.959 9360.532 7081.959 9349.532 6994.959 9316.532 C 6946.959 9299.532 6913.959 9274.532 6822.959 9188.532 C 6760.959 9129.532 6679.959 9064.532 6643.959 9042.532 C 6607.959 9021.532 6575.959 9000.532 6572.959 8996.532 C 6563.959 8981.532 6656.959 8810.532 6688.959 8783.532 C 6705.959 8769.532 6723.959 8757.532 6727.959 8757.532 C 6731.959 8757.532 6744.959 8771.532 6757.959 8788.532 C 6848.959 8911.532 6996.959 9030.532 7105.959 9068.532 C 7171.959 9091.532 7429.959 9147.532 7471.959 9147.532 C 7495.959 9147.532 7499.959 9143.532 7496.959 9125.532 C 7493.959 9104.532 7480.959 9099.532 7335.959 9070.532 C 7151.959 9034.532 7084.959 9011.532 7000.959 8956.532 C 6942.959 8918.532 6863.959 8841.532 6818.959 8777.532 L 6797.959 8748.532 L 6820.959 8743.532 C 6833.959 8741.532 6920.959 8732.532 7013.959 8723.532 C 7107.959 8715.532 7210.959 8701.532 7243.959 8692.532 C 7333.959 8669.532 7433.959 8617.532 7533.959 8543.532 L 7622.959 8477.532 L 7709.959 8477.532 C 7825.959 8477.532 7828.959 8480.532 7883.959 8686.532 C 7902.959 8758.532 7927.959 8835.532 7938.959 8857.532 C 7989.959 8957.532 8263.959 9107.532 8393.959 9107.532 C 8423.959 9107.532 8495.959 9081.532 8654.959 9013.532 C 8931.959 8895.532 9030.959 8858.532 9220.959 8803.532 C 9393.959 8752.532 9493.959 8712.532 9658.959 8625.532 C 9901.959 8498.532 10097.959 8348.532 10150.959 8250.532 C 10178.959 8199.532 10198.959 8111.532 10198.959 8041.532 L 10198.959 7998.532 L 10271.959 7962.532 C 10536.959 7827.532 10759.959 7627.532 11100.959 7217.532 C 11157.959 7148.532 11247.959 7042.532 11300.959 6981.532 C 11352.959 6920.532 11422.959 6832.532 11454.959 6786.532 C 11487.959 6740.532 11534.959 6680.532 11561.959 6652.532 C 11587.959 6625.532 11608.959 6601.532 11608.959 6599.532 C 11608.959 6583.532 11571.959 6537.532 11558.959 6537.532 C 11535.959 6537.532 11451.959 6627.532 11370.959 6739.532 C 11331.959 6792.532 11257.959 6884.532 11206.959 6943.532 C 11155.959 7002.532 11062.959 7112.532 11000.959 7186.532 C 10853.959 7363.532 10685.959 7541.532 10578.959 7635.532 C 10483.959 7718.532 10287.959 7852.532 10218.959 7881.532 C 10193.959 7892.532 10135.959 7917.532 10088.959 7938.532 C 9980.959 7986.532 9921.959 8003.532 9777.959 8027.532 C 9603.959 8057.532 9575.959 8069.532 9313.959 8225.532 C 9117.959 8342.532 9030.959 8382.532 8911.959 8413.532 C 8647.959 8480.532 8316.959 8462.532 7874.959 8357.532 C 7804.959 8341.532 7735.959 8327.532 7720.959 8327.532 C 7697.959 8327.532 7687.959 8316.532 7649.959 8249.532 C 7512.959 8009.532 7303.959 7722.532 7169.959 7591.532 L 7096.959 7520.532 L 7132.959 7429.532 C 7186.959 7294.532 7188.959 7250.532 7144.959 7076.532 C 7124.959 6995.532 7104.959 6884.532 7099.959 6822.532 C 7089.959 6713.532 7090.959 6712.532 7118.959 6647.532 C 7145.959 6588.532 7146.959 6581.532 7131.959 6570.532 C 7122.959 6563.532 7108.959 6557.532 7101.959 6557.532 C 7084.959 6557.532 7042.959 6622.532 7028.959 6673.532 C 7011.959 6730.532 7030.959 6932.532 7063.959 7054.532 C 7116.959 7254.532 7115.959 7295.532 7044.959 7448.532 L 7009.959 7525.532 L 6911.959 7577.532 C 6769.959 7654.532 6609.959 7747.532 6602.959 7758.532 C 6592.959 7775.532 6607.959 7817.532 6623.959 7817.532 C 6632.959 7817.532 6693.959 7785.532 6760.959 7746.532 C 6906.959 7661.532 7032.959 7597.532 7052.959 7597.532 C 7077.959 7597.532 7192.959 7711.532 7271.959 7815.532 C 7349.959 7917.532 7532.959 8191.532 7587.959 8289.532 C 7605.959 8321.532 7616.959 8352.532 7612.959 8358.532 C 7598.959 8382.532 7390.959 8529.532 7330.959 8558.532 C 7296.959 8574.532 7244.959 8593.532 7215.959 8599.532 L 7161.959 8610.532 L 7052.959 8552.532 C 6992.959 8520.532 6851.959 8441.532 6738.959 8377.532 C 6625.959 8313.532 6488.959 8237.532 6432.959 8209.532 C 6339.959 8161.532 6321.959 8146.532 6191.959 8014.532 C 6038.959 7859.532 6003.959 7805.532 5940.959 7625.532 C 5887.959 7476.532 5875.959 7386.532 5881.959 7192.532 C 5888.959 7004.532 5903.959 6914.532 5964.959 6710.532 C 6001.959 6588.532 6002.959 6584.532 5983.959 6571.532 C 5951.959 6547.532 5923.959 6555.532 5891.959 6595.532 C 5875.959 6615.532 5856.959 6643.532 5849.959 6656.532 C 5842.959 6669.532 5800.959 6727.532 5757.959 6786.532 C 5682.959 6887.532 5608.959 7032.532 5608.959 7078.532 C 5608.959 7095.532 5635.959 7117.532 5656.959 7117.532 C 5660.959 7117.532 5677.959 7087.532 5692.959 7050.532 C 5727.959 6964.532 5781.959 6867.532 5806.959 6844.532 C 5825.959 6827.532 5825.959 6828.532 5816.959 6879.532 C 5812.959 6908.532 5801.959 6991.532 5792.959 7062.532 C 5779.959 7172.532 5773.959 7196.532 5754.959 7217.532 C 5741.959 7231.532 5721.959 7261.532 5709.959 7284.532 C 5685.959 7332.532 5678.959 7337.532 5576.959 7373.532 C 5489.959 7404.532 5439.959 7431.532 5335.959 7505.532 C 5255.959 7563.532 5242.959 7587.532 5280.959 7611.532 C 5294.959 7619.532 5314.959 7609.532 5385.959 7560.532 C 5433.959 7527.532 5496.959 7488.532 5523.959 7475.532 C 5579.959 7447.532 5687.959 7413.532 5695.959 7421.532 C 5704.959 7430.532 5612.959 7568.532 5514.959 7692.532 C 5462.959 7758.532 5407.959 7829.532 5391.959 7851.532 C 5364.959 7888.532 5364.959 7890.532 5383.959 7903.532 C 5394.959 7911.532 5409.959 7916.532 5418.959 7915.532 C 5439.959 7911.532 5604.959 7705.532 5703.959 7558.532 L 5787.959 7435.532 L 5797.959 7478.532 C 5822.959 7580.532 5874.959 7728.532 5915.959 7815.532 C 5956.959 7902.532 5970.959 7920.532 6133.959 8089.532 C 6315.959 8277.532 6367.959 8344.532 6388.959 8414.532 C 6409.959 8482.532 6399.959 8497.532 6269.959 8596.532 C 6203.959 8646.532 6112.959 8719.532 6066.959 8758.532 C 6013.959 8803.532 5949.959 8845.532 5890.959 8874.532 C 5840.959 8899.532 5796.959 8923.532 5793.959 8927.532 C 5790.959 8932.532 5795.959 8952.532 5805.959 8971.532 C 5825.959 9014.532 5824.959 9014.532 5950.959 8951.532 C 6000.959 8926.532 6074.959 8876.532 6125.959 8834.532 C 6173.959 8793.532 6263.959 8722.532 6323.959 8675.532 C 6465.959 8564.532 6478.959 8549.532 6492.959 8483.532 L 6503.959 8427.532 L 6576.959 8517.532 C 6616.959 8566.532 6656.959 8620.532 6666.959 8637.532 C 6682.959 8666.532 6682.959 8668.532 6666.959 8678.532 C 6608.959 8711.532 6582.959 8748.532 6497.959 8923.532 C 6448.959 9023.532 6388.959 9132.532 6364.959 9165.532 C 6287.959 9270.532 6141.959 9373.532 6008.959 9417.532 C 5924.959 9445.532 5750.959 9453.532 5663.959 9433.532 Z M 8548.959 7865.532 C 8548.959 7859.532 8510.959 7814.532 8463.959 7764.532 C 8374.959 7669.532 8328.959 7593.532 8328.959 7545.532 C 8328.959 7530.532 8335.959 7476.532 8344.959 7427.532 C 8368.959 7282.532 8344.959 7168.532 8242.959 6948.532 C 8218.959 6896.532 8198.959 6852.532 8198.959 6850.532 C 8198.959 6847.532 8254.959 6899.532 8322.959 6964.532 C 8526.959 7160.532 8600.959 7188.532 8918.959 7190.532 C 9074.959 7191.532 9124.959 7188.532 9168.959 7174.532 C 9347.959 7120.532 9543.959 6923.532 9659.959 6680.532 C 9735.959 6520.532 9777.959 6372.532 9825.959 6095.532 L 9833.959 6047.532 L 9913.959 6108.532 C 10007.959 6180.532 10069.959 6211.532 10156.959 6228.532 C 10210.959 6239.532 10221.959 6239.532 10228.959 6227.532 C 10254.959 6186.532 10238.959 6173.532 10122.959 6142.532 C 10075.959 6129.532 10037.959 6107.532 9947.959 6039.532 C 9828.959 5948.532 9810.959 5923.532 9842.959 5888.532 C 9859.959 5869.532 9906.959 5853.532 9975.959 5842.532 C 10026.959 5834.532 10032.959 5827.532 10023.959 5780.532 L 10017.959 5744.532 L 9952.959 5750.532 C 9876.959 5756.532 9788.959 5795.532 9758.959 5837.532 C 9742.959 5859.532 9738.959 5881.532 9738.959 5939.532 C 9738.959 5979.532 9731.959 6058.532 9723.959 6115.532 C 9671.959 6480.532 9545.959 6763.532 9354.959 6944.532 C 9211.959 7081.532 9146.959 7102.532 8883.959 7094.532 C 8612.959 7087.532 8576.959 7072.532 8381.959 6886.532 C 8237.959 6747.532 8176.959 6700.532 8091.959 6658.532 C 8025.959 6625.532 7761.959 6544.532 7748.959 6552.532 C 7738.959 6558.532 7714.959 6627.532 7720.959 6632.532 C 7722.959 6634.532 7782.959 6653.532 7854.959 6675.532 C 7926.959 6697.532 7995.959 6720.532 8007.959 6726.532 C 8057.959 6753.532 8199.959 7008.532 8250.959 7162.532 C 8275.959 7239.532 8279.959 7337.532 8264.959 7504.532 C 8255.959 7593.532 8256.959 7598.532 8283.959 7654.532 C 8303.959 7693.532 8343.959 7744.532 8410.959 7811.532 C 8506.959 7909.532 8508.959 7910.532 8528.959 7892.532 C 8539.959 7882.532 8548.959 7870.532 8548.959 7865.532 Z M 5322.959 3906.532 C 5369.959 3855.532 5376.959 3843.532 5368.959 3827.532 C 5353.959 3798.532 5322.959 3784.532 5300.959 3796.532 C 5283.959 3805.532 5222.959 3874.532 5204.959 3905.532 C 5195.959 3920.532 5233.959 3967.532 5254.959 3967.532 C 5260.959 3967.532 5291.959 3940.532 5322.959 3906.532 Z M 6700.959 3417.532 C 6707.959 3417.532 6708.959 3381.532 6703.959 3308.532 C 6694.959 3163.532 6707.959 3117.532 6792.959 3002.532 C 6828.959 2954.532 6855.959 2910.532 6852.959 2902.532 C 6844.959 2881.532 6809.959 2873.532 6792.959 2888.532 C 6760.959 2915.532 6686.959 3019.532 6660.959 3074.532 C 6635.959 3127.532 6633.959 3142.532 6633.959 3257.532 C 6633.959 3388.532 6645.959 3434.532 6675.959 3423.532 C 6683.959 3420.532 6694.959 3417.532 6700.959 3417.532 Z M 3229.959 2251.532 C 3394.959 2137.532 3558.959 2010.532 3558.959 1997.532 C 3558.959 1993.532 3552.959 1984.532 3544.959 1978.532 C 3533.959 1969.532 3504.959 1986.532 3406.959 2059.532 C 3338.959 2110.532 3227.959 2190.532 3160.959 2236.532 C 3047.959 2313.532 3027.959 2333.532 3045.959 2350.532 C 3059.959 2365.532 3081.959 2353.532 3229.959 2251.532 Z" style="fill: rgb(8, 20, 28);"/>
    <path d="M 4628.959 9381.532 C 4563.959 9356.532 4563.959 9356.532 4409.959 9368.532 C 4122.959 9390.532 3856.959 9369.532 3588.959 9303.532 C 3226.959 9213.532 2864.959 9023.532 2603.959 8786.532 C 2552.959 8740.532 2531.959 8727.532 2506.959 8727.532 C 2467.959 8727.532 2372.959 8691.532 2251.959 8631.532 C 2050.959 8532.532 1924.959 8432.532 1633.959 8140.532 L 1433.959 7939.532 L 1353.959 7914.532 C 1309.959 7900.532 1248.959 7882.532 1218.959 7873.532 C 1169.959 7859.532 1146.959 7842.532 1018.959 7722.532 C 938.959 7647.532 833.959 7558.532 785.959 7525.532 C 682.959 7454.532 562.959 7330.532 484.959 7213.532 C 417.959 7114.532 312.959 6899.532 268.959 6770.532 C 250.959 6719.532 216.959 6642.532 191.959 6600.532 C 81.959 6409.532 35.959 6294.532 18.959 6168.532 C 5.959 6076.532 17.959 5989.532 49.959 5924.532 L 69.959 5885.532 L 131.959 5950.532 C 165.959 5986.532 200.959 6017.532 208.959 6019.532 C 219.959 6023.532 217.959 6035.532 193.959 6088.532 C 170.959 6141.532 164.959 6169.532 160.959 6253.532 C 158.959 6311.532 161.959 6378.532 168.959 6411.532 C 192.959 6530.532 353.959 6807.532 496.959 6977.532 C 575.959 7072.532 635.959 7117.532 721.959 7146.532 C 806.959 7175.532 988.959 7214.532 1106.959 7228.532 C 1171.959 7236.532 1217.959 7246.532 1228.959 7256.532 C 1238.959 7265.532 1271.959 7326.532 1301.959 7392.532 C 1367.959 7539.532 1445.959 7680.532 1506.959 7767.532 C 1667.959 7994.532 1961.959 8265.532 2137.959 8349.532 C 2200.959 8379.532 2210.959 8381.532 2380.959 8388.532 C 2477.959 8392.532 2565.959 8400.532 2576.959 8406.532 C 2586.959 8411.532 2637.959 8462.532 2688.959 8517.532 C 2793.959 8631.532 2830.959 8659.532 2956.959 8722.532 C 3069.959 8778.532 3160.959 8810.532 3283.959 8837.532 C 3367.959 8855.532 3400.959 8858.532 3489.959 8852.532 L 3595.959 8846.532 L 3602.959 8929.532 C 3612.959 9046.532 3653.959 9129.532 3693.959 9113.532 C 3720.959 9103.532 3722.959 9076.532 3699.959 9031.532 C 3683.959 8998.532 3678.959 8968.532 3678.959 8913.532 L 3678.959 8840.532 L 3724.959 8833.532 C 3750.959 8830.532 3920.959 8827.532 4102.959 8827.532 C 4499.959 8826.532 4781.959 8814.532 4872.959 8793.532 C 4909.959 8784.532 4974.959 8761.532 5016.959 8742.532 C 5057.959 8722.532 5095.959 8710.532 5099.959 8714.532 C 5103.959 8719.532 5122.959 8774.532 5142.959 8837.532 C 5162.959 8900.532 5189.959 8969.532 5203.959 8989.532 C 5232.959 9032.532 5233.959 9031.532 5165.959 9132.532 C 5106.959 9220.532 5002.959 9324.532 4959.959 9338.532 C 4939.959 9345.532 4883.959 9353.532 4833.959 9356.532 C 4749.959 9362.532 4743.959 9364.532 4740.959 9385.532 C 4736.959 9414.532 4711.959 9413.532 4628.959 9381.532 Z" style="fill: rgb(8, 20, 28);"/>
    <path d="M 8323.959 9024.532 C 8207.959 8986.532 8041.959 8885.532 8009.959 8833.532 C 7998.959 8815.532 7973.959 8741.532 7954.959 8669.532 C 7934.959 8597.532 7912.959 8522.532 7904.959 8502.532 C 7886.959 8459.532 7881.959 8459.532 8030.959 8491.532 C 8232.959 8534.532 8313.959 8542.532 8548.959 8542.532 C 8791.959 8542.532 8850.959 8535.532 9000.959 8486.532 C 9108.959 8451.532 9187.959 8411.532 9391.959 8289.532 C 9592.959 8169.532 9633.959 8153.532 9816.959 8117.532 C 9897.959 8101.532 9996.959 8077.532 10037.959 8063.532 C 10078.959 8049.532 10114.959 8037.532 10116.959 8037.532 C 10129.959 8037.532 10108.959 8168.532 10090.959 8202.532 C 10035.959 8309.532 9852.959 8445.532 9577.959 8583.532 C 9415.959 8664.532 9361.959 8684.532 9164.959 8741.532 C 9002.959 8788.532 8914.959 8822.532 8615.959 8949.532 C 8511.959 8993.532 8412.959 9030.532 8395.959 9033.532 C 8377.959 9035.532 8345.959 9031.532 8323.959 9024.532 Z" style="fill: rgb(8, 20, 28);"/>
    <path d="M 2170.959 8697.532 C 2040.959 8650.532 1868.959 8540.532 1679.959 8380.532 C 1579.959 8295.532 1306.959 8020.532 1287.959 7985.532 C 1278.959 7969.532 1281.959 7969.532 1325.959 7982.532 C 1352.959 7990.532 1377.959 7997.532 1382.959 7997.532 C 1387.959 7997.532 1486.959 8093.532 1602.959 8210.532 C 1860.959 8471.532 1976.959 8566.532 2171.959 8676.532 C 2202.959 8694.532 2228.959 8710.532 2228.959 8713.532 C 2228.959 8715.532 2227.959 8717.532 2226.959 8716.532 C 2224.959 8716.532 2199.959 8707.532 2170.959 8697.532 Z" style="fill: rgb(8, 20, 28);"/>
    <path d="M 6683.959 8571.532 C 6650.959 8528.532 6581.959 8444.532 6530.959 8385.532 C 6479.959 8325.532 6441.959 8277.532 6445.959 8277.532 C 6450.959 8277.532 6530.959 8320.532 6623.959 8373.532 C 6717.959 8426.532 6850.959 8501.532 6920.959 8540.532 C 6991.959 8580.532 7048.959 8615.532 7048.959 8618.532 C 7048.959 8625.532 6979.959 8634.532 6843.959 8643.532 L 6743.959 8650.532 L 6683.959 8571.532 Z" style="fill: rgb(8, 20, 28);"/>
    <path d="M 11448.959 6095.532 C 11448.959 6088.532 11457.959 6042.532 11468.959 5992.532 C 11479.959 5943.532 11506.959 5795.532 11528.959 5663.532 C 11575.959 5381.532 11582.959 5353.532 11654.959 5149.532 C 11707.959 4999.532 11709.959 4989.532 11703.959 4922.532 C 11688.959 4753.532 11643.959 4627.532 11554.959 4503.532 C 11504.959 4433.532 11367.959 4298.532 11260.959 4212.532 L 11187.959 4154.532 L 11222.959 4118.532 C 11315.959 4021.532 11427.959 3815.532 11498.959 3612.532 C 11552.959 3456.532 11531.959 3466.532 11803.959 3465.532 C 11976.959 3463.532 12009.959 3466.532 12168.959 3495.532 C 12264.959 3512.532 12370.959 3528.532 12403.959 3529.532 C 12459.959 3532.532 12463.959 3531.532 12466.959 3508.532 C 12468.959 3495.532 12466.959 3481.532 12461.959 3476.532 C 12456.959 3471.532 12366.959 3453.532 12261.959 3436.532 C 12156.959 3418.532 12064.959 3401.532 12058.959 3397.532 C 12049.959 3392.532 12050.959 3382.532 12062.959 3359.532 C 12093.959 3298.532 12145.959 3161.532 12176.959 3057.532 C 12225.959 2890.532 12248.959 2758.532 12255.959 2599.532 L 12261.959 2453.532 L 12311.959 2507.532 C 12391.959 2594.532 12433.959 2655.532 12501.959 2783.532 C 12566.959 2905.532 12653.959 3042.532 12680.959 3065.532 C 12691.959 3074.532 12699.959 3073.532 12716.959 3061.532 C 12728.959 3053.532 12738.959 3042.532 12738.959 3038.532 C 12738.959 3033.532 12715.959 2994.532 12686.959 2951.532 C 12658.959 2908.532 12601.959 2813.532 12561.959 2739.532 C 12489.959 2608.532 12426.959 2516.532 12374.959 2468.532 C 12360.959 2454.532 12348.959 2440.532 12348.959 2436.532 C 12348.959 2432.532 12392.959 2381.532 12446.959 2323.532 C 12518.959 2246.532 12548.959 2205.532 12557.959 2175.532 L 12570.959 2132.532 L 12590.959 2171.532 C 12627.959 2243.532 12696.959 2471.532 12727.959 2622.532 C 12771.959 2838.532 12788.959 2986.532 12795.959 3202.532 L 12800.959 3392.532 L 12769.959 3482.532 C 12752.959 3532.532 12705.959 3639.532 12665.959 3721.532 C 12584.959 3889.532 12573.959 3889.532 12603.959 3726.532 C 12623.959 3618.532 12620.959 3597.532 12585.959 3597.532 C 12564.959 3597.532 12558.959 3605.532 12543.959 3660.532 C 12514.959 3760.532 12512.959 3891.532 12537.959 4052.532 C 12591.959 4400.532 12580.959 4736.532 12511.959 4838.532 C 12501.959 4852.532 12464.959 4890.532 12428.959 4921.532 C 12366.959 4977.532 12363.959 4978.532 12357.959 4956.532 C 12353.959 4943.532 12350.959 4902.532 12349.959 4866.532 C 12348.959 4773.532 12322.959 4637.532 12287.959 4535.532 C 12242.959 4404.532 12218.959 4283.532 12218.959 4185.532 C 12218.959 4099.532 12217.959 4097.532 12192.959 4091.532 C 12178.959 4087.532 12162.959 4089.532 12155.959 4096.532 C 12122.959 4129.532 12149.959 4358.532 12204.959 4520.532 C 12248.959 4646.532 12268.959 4749.532 12275.959 4874.532 L 12281.959 4996.532 L 12249.959 5062.532 C 12206.959 5148.532 12103.959 5288.532 11802.959 5667.532 C 11665.959 5840.532 11531.959 6010.532 11505.959 6045.532 C 11455.959 6109.532 11448.959 6116.532 11448.959 6095.532 Z" style="fill: rgb(8, 20, 28);"/>
    <path d="M 206.959 5928.532 C 193.959 5917.532 171.959 5887.532 157.959 5860.532 C 144.959 5834.532 114.959 5781.532 91.959 5742.532 C -37.041 5526.532 -32.041 5306.532 108.959 5012.532 C 181.959 4859.532 267.959 4733.532 389.959 4601.532 C 428.959 4558.532 448.959 4527.532 455.959 4496.532 C 499.959 4320.532 511.959 4277.532 539.959 4211.532 C 619.959 4019.532 814.959 3796.532 1022.959 3659.532 C 1223.959 3526.532 1468.959 3415.532 1718.959 3342.532 C 1840.959 3307.532 2145.959 3241.532 2153.959 3248.532 C 2160.959 3255.532 2206.959 3661.532 2201.959 3673.532 C 2198.959 3680.532 2164.959 3702.532 2125.959 3722.532 L 2053.959 3759.532 L 1997.959 3705.532 C 1914.959 3626.532 1828.959 3583.532 1753.959 3582.532 C 1672.959 3582.532 1660.959 3588.532 1666.959 3626.532 C 1670.959 3657.532 1671.959 3657.532 1731.959 3657.532 C 1772.959 3657.532 1806.959 3664.532 1835.959 3678.532 C 1879.959 3699.532 1978.959 3782.532 1978.959 3798.532 C 1978.959 3803.532 1949.959 3839.532 1913.959 3878.532 C 1877.959 3916.532 1827.959 3977.532 1801.959 4013.532 C 1755.959 4074.532 1749.959 4079.532 1663.959 4112.532 C 1614.959 4131.532 1538.959 4167.532 1496.959 4193.532 C 1404.959 4247.532 1421.959 4250.532 1199.959 4147.532 C 1010.959 4059.532 950.959 4043.532 833.959 4051.532 C 784.959 4054.532 721.959 4062.532 693.959 4070.532 C 646.959 4082.532 643.959 4084.532 646.959 4112.532 C 648.959 4128.532 651.959 4144.532 653.959 4146.532 C 655.959 4148.532 686.959 4144.532 721.959 4138.532 C 812.959 4122.532 936.959 4124.532 999.959 4143.532 C 1077.959 4166.532 1261.959 4255.532 1254.959 4266.532 C 1251.959 4271.532 1215.959 4281.532 1175.959 4287.532 C 1074.959 4304.532 960.959 4342.532 912.959 4374.532 C 787.959 4459.532 656.959 4602.532 537.959 4781.532 C 441.959 4925.532 413.959 5006.532 397.959 5175.532 C 375.959 5421.532 410.959 5567.532 519.959 5682.532 C 546.959 5711.532 568.959 5738.532 568.959 5743.532 C 567.959 5748.532 530.959 5774.532 484.959 5801.532 C 438.959 5827.532 374.959 5871.532 342.959 5898.532 C 277.959 5952.532 245.959 5959.532 206.959 5928.532 Z" style="fill: rgb(8, 20, 28);"/>
    <path d="M 1946.959 3980.532 C 1973.959 3943.532 2013.959 3907.532 2068.959 3870.532 C 2110.959 3842.532 2212.959 3787.532 2222.959 3787.532 C 2227.959 3787.532 2278.959 3896.532 2278.959 3907.532 C 2278.959 3912.532 2239.959 3925.532 2191.959 3936.532 C 2142.959 3947.532 2070.959 3968.532 2029.959 3982.532 C 1931.959 4015.532 1921.959 4015.532 1946.959 3980.532 Z" style="fill: rgb(8, 20, 28);"/>
    <path d="M 12261.959 2362.532 C 12244.959 2348.532 12219.959 2320.532 12207.959 2300.532 C 12194.959 2279.532 12151.959 2216.532 12111.959 2159.532 C 12069.959 2099.532 12036.959 2040.532 12032.959 2019.532 C 12028.959 1999.532 12030.959 1924.532 12037.959 1852.532 C 12049.959 1719.532 12046.959 1681.532 12015.959 1550.532 C 12006.959 1515.532 12003.959 1487.532 12008.959 1487.532 C 12012.959 1487.532 12051.959 1510.532 12094.959 1538.532 C 12202.959 1608.532 12358.959 1768.532 12442.959 1895.532 L 12511.959 1998.532 L 12505.959 2077.532 C 12499.959 2174.532 12487.959 2194.532 12376.959 2304.532 L 12293.959 2386.532 L 12261.959 2362.532 Z" style="fill: rgb(8, 20, 28);"/>
    <path d="M 8616.959 1390.532 C 8622.959 1388.532 8634.959 1388.532 8641.959 1390.532 C 8647.959 1393.532 8642.959 1395.532 8628.959 1395.532 C 8614.959 1395.532 8609.959 1393.532 8616.959 1390.532 Z" style="fill: rgb(8, 20, 28);"/>
  </g>
</svg>